<svg version="1.2" xmlns="http://www.w3.org/2000/svg" viewBox="0 0 48 48" width="48" height="48">
	<title>stethoscope (1)-svg</title>
	<defs>
		<linearGradient id="g1" x1="24" y1="42" x2="24" y2="6" gradientUnits="userSpaceOnUse">
			<stop offset="0" stop-color="#000000"/>
			<stop offset="1" stop-color="#ffffff"/>
		</linearGradient>
	</defs>
	<style>
		.s0 { fill: #ffffff } 
		.s1 { fill: url(#g1) } 
	</style>
	<g id="Layer">
		<path id="Layer" class="s0" d="m12 10c1.1 0 2-0.9 2-2 0-1.1-0.9-2-2-2-0.7 0-1.4 0.4-1.7 1h-0.3c-1.7 0-3 1.3-3 3v9h2v-9c0-0.6 0.4-1 1-1h0.3c0.3 0.6 1 1 1.7 1z"/>
		<path id="Layer" fill-rule="evenodd" class="s1" d="m11.2 20c0.2 1.2 0.8 2.3 1.7 3.1 1.1 1.1 2.6 1.7 4.1 1.7 1.5 0 3-0.6 4.1-1.7 0.9-0.8 1.5-1.9 1.7-3.1 0-0.5 0.5-1 1-1h1.2v-9c0-0.6-0.4-1-1-1h-0.3c-0.3 0.6-1 1-1.7 1-1.1 0-2-0.9-2-2 0-1.1 0.9-2 2-2 0.7 0 1.4 0.4 1.7 1h0.3c1.7 0 3 1.3 3 3v9c0.6 0 1 0.4 1 1-0.3 2.5-1.4 5-3.2 6.8-1.4 1.3-3 2.3-4.8 2.8v2.4c0 1.3-0.8 2.4-2 2.8 0 2.9 2.4 5.2 5.3 5.2 2.8 0 5.2-2.4 5.2-5.3v-4c0-3.1 2.6-5.7 5.8-5.7 3.1 0 5.7 2.6 5.7 5.7v2.5c1.2 0.4 2 1.5 2 2.8 0 1.7-1.3 3-3 3-1.7 0-3-1.3-3-3 0-1.3 0.8-2.4 2-2.8v-2.4c0-2.1-1.7-3.8-3.7-3.8-2.1 0-3.8 1.7-3.8 3.8v4c0 4-3.2 7.2-7.2 7.2-4 0-7.3-3.2-7.3-7.2-1.2-0.4-2-1.5-2-2.8v-2.4c-1.8-0.5-3.4-1.5-4.8-2.8-1.8-1.8-2.9-4.3-3.2-6.8 0-0.6 0.4-1 1-1h3.2c0.5 0 1 0.5 1 1zm11.3 4.5c-1.4 1.5-3.4 2.3-5.5 2.3-2.1 0-4.1-0.8-5.5-2.3-1-0.9-1.7-2.2-2.1-3.5h-1.2c0.4 1.6 1.2 3.2 2.4 4.4 1.7 1.7 4 2.6 6.4 2.6 2.4 0 4.7-0.9 6.4-2.6 1.2-1.2 2-2.8 2.4-4.4h-1.2c-0.4 1.3-1.1 2.6-2.1 3.5zm15.5 11.5c0 0.6 0.4 1 1 1 0.6 0 1-0.4 1-1 0-0.6-0.4-1-1-1-0.6 0-1 0.4-1 1zm-22-6v2c0 0.6 0.4 1 1 1 0.6 0 1-0.4 1-1v-2z"/>
	</g>
</svg>